# xmcd
# 
# Track frame offsets:
#     182
#     11210
#     23675
#     34310
#     44570
#     55180
#     67010
#     79452
#     89972
#     105890
#     117060
#     129175
#     140062
#     151930
#     163080
#     173890
#     185947
#     197492
#     209080
#     221490
#     232342
#     243002
#     256080
#     269595
#     280837
#     292022
#     304477
#     314240
#     334945
#     342117
# 
# Disc length: 4691
# 
# Revision: 6
# Processed by: cddbd v1.5.2PL0 Copyright (c) Steve Scherf et al.
# Submitted via: fre:ac v1.0.31
# 
DISCID=dc12511e
DTITLE=Nuggets - Nuggets  Original Artyfacts From The First Psychedelic Era - 1965-1968 Disc 4
DYEAR=1998
DGENRE=Rock/Pop
TTITLE0=Chocolate Watchband - Are You Gonna Be There (At The Love-In)
TTITLE1=Leaves - Too Many People
TTITLE2=Brigands - (Would I Still Be) Her Big Man
TTITLE3=Barbarians - Are You A Boy Or Are You A Girl
TTITLE4=Sam The Sham and The Pharaohs - Wooly Bully
TTITLE5=Strangeloves - I Want Candy
TTITLE6=Kingsmen - Louie, Louie
TTITLE7=Knickerbockers - One Track Mind
TTITLE8=Wailers - Out Of Our Tree
TTITLE9=Harbinger Complex - I Think I'm Down
TTITLE10=Dovers - What Am I Going To Do
TTITLE11=Charlatans - Codine
TTITLE12=Mystery Trend - Johnny Was A Good Boy
TTITLE13=Clefs Of Lavender Hill - Stop - Get A Ticket
TTITLE14=Monks - Complication
TTITLE15=Sonics - The Witch
TTITLE16=Electric Prunes - Get Me To The World On Time
TTITLE17=Other Half - Mr. Pharmacist
TTITLE18=Richard and The Young Lions - Open Up Your Door
TTITLE19=Paul Revere and The Raiders - Just Like Me
TTITLE20=We The People - You Burn Me Up And Down
TTITLE21=Lemon Drops - I Live In The Springtime
TTITLE22=Fenwyck - Mindrocker
TTITLE23=Rumors - Hold Me Now
TTITLE24=Underdogs - Love's Gone Bad
TTITLE25=Standells - Why Pick On Me
TTITLE26=Zakary Thaks - Bad Girl
TTITLE27=Gonn - Blackout Of Gretely
TTITLE28=Bees - Voices Green And Purple
TTITLE29=Davie Allan and The Arrows - Blues' Theme
EXTD=
EXTT0=
EXTT1=
EXTT2=
EXTT3=
EXTT4=
EXTT5=
EXTT6=
EXTT7=
EXTT8=
EXTT9=
EXTT10=
EXTT11=
EXTT12=
EXTT13=
EXTT14=
EXTT15=
EXTT16=
EXTT17=
EXTT18=
EXTT19=
EXTT20=
EXTT21=
EXTT22=
EXTT23=
EXTT24=
EXTT25=
EXTT26=
EXTT27=
EXTT28=
EXTT29=
PLAYORDER=
